name rise30.8019peak61.5557fall86.2505.mot
datacolumns 19
datarows 62
range 0.000000 0.101670
endheader
time	ground_force1_vx	ground_force1_vy	ground_force1_vz	ground_force1_px	ground_force1_py	ground_force1_pz	ground_force2_vx	ground_force2_vy	ground_force2_vz	ground_force2_px	ground_force2_py	ground_force2_pz	ground_torque1_x	ground_torque1_y	ground_torque1_z	ground_torque2_x	ground_torque2_y	ground_torque2_z	
0.000000	62.173937	774.687741	48.538883	0.256564	0.000000	0.094484	0.000000	0.000000	0.000000	0.000000	0.000000	0.000000	0.000000	13.357220	0.000000	0.000000	0.000000	0.000000	
0.001667	61.631675	775.180013	48.724612	0.255753	0.000000	0.094591	0.000000	0.000000	0.000000	0.000000	0.000000	0.000000	0.000000	13.471796	0.000000	0.000000	0.000000	0.000000	
0.003337	61.094380	775.668025	48.908774	0.254911	0.000000	0.094699	0.000000	0.000000	0.000000	0.000000	0.000000	0.000000	0.000000	13.583091	0.000000	0.000000	0.000000	0.000000	
0.005007	60.561247	776.147535	49.090666	0.254038	0.000000	0.094808	0.000000	0.000000	0.000000	0.000000	0.000000	0.000000	0.000000	13.690606	0.000000	0.000000	0.000000	0.000000	
0.006670	60.030772	776.614720	49.269774	0.253134	0.000000	0.094919	0.000000	0.000000	0.000000	0.000000	0.000000	0.000000	0.000000	13.794032	0.000000	0.000000	0.000000	0.000000	
0.008340	59.500982	777.066168	49.445726	0.252201	0.000000	0.095031	0.000000	0.000000	0.000000	0.000000	0.000000	0.000000	0.000000	13.893207	0.000000	0.000000	0.000000	0.000000	
0.010008	58.969676	777.498852	49.618249	0.251237	0.000000	0.095143	0.000000	0.000000	0.000000	0.000000	0.000000	0.000000	0.000000	13.988080	0.000000	0.000000	0.000000	0.000000	
0.011666	58.434633	777.910080	49.787119	0.250245	0.000000	0.095256	0.000000	0.000000	0.000000	0.000000	0.000000	0.000000	0.000000	14.078671	0.000000	0.000000	0.000000	0.000000	
0.013336	57.893789	778.297440	49.952125	0.249224	0.000000	0.095369	0.000000	0.000000	0.000000	0.000000	0.000000	0.000000	0.000000	14.165029	0.000000	0.000000	0.000000	0.000000	
0.015006	57.345377	778.658731	50.113030	0.248176	0.000000	0.095483	0.000000	0.000000	0.000000	0.000000	0.000000	0.000000	0.000000	14.247209	0.000000	0.000000	0.000000	0.000000	
0.016673	56.788013	778.991906	50.269548	0.247100	0.000000	0.095596	0.000000	0.000000	0.000000	0.000000	0.000000	0.000000	0.000000	14.325239	0.000000	0.000000	0.000000	0.000000	
0.018341	56.220744	779.295007	50.421326	0.245998	0.000000	0.095710	0.000000	0.000000	0.000000	0.000000	0.000000	0.000000	0.000000	14.399112	0.000000	0.000000	0.000000	0.000000	
0.020007	55.643059	779.566121	50.567934	0.244871	0.000000	0.095822	0.000000	0.000000	0.000000	0.000000	0.000000	0.000000	0.000000	14.468770	0.000000	0.000000	0.000000	0.000000	
0.021671	55.054861	779.803339	50.708862	0.243719	0.000000	0.095935	0.000000	0.000000	0.000000	0.000000	0.000000	0.000000	0.000000	14.534104	0.000000	0.000000	0.000000	0.000000	
0.023338	54.456419	780.004725	50.843530	0.242544	0.000000	0.096046	0.000000	0.000000	0.000000	0.000000	0.000000	0.000000	0.000000	14.594956	0.000000	0.000000	0.000000	0.000000	
0.024999	53.848303	780.168308	50.971296	0.241346	0.000000	0.096157	0.000000	0.000000	0.000000	0.000000	0.000000	0.000000	0.000000	14.651129	0.000000	0.000000	0.000000	0.000000	
0.026669	53.231306	780.292068	51.091470	0.240127	0.000000	0.096266	0.000000	0.000000	0.000000	0.000000	0.000000	0.000000	0.000000	14.702392	0.000000	0.000000	0.000000	0.000000	
0.028336	52.606373	780.373952	51.203330	0.238887	0.000000	0.096374	0.000000	0.000000	0.000000	0.000000	0.000000	0.000000	0.000000	14.748497	0.000000	0.000000	0.000000	0.000000	
0.030002	51.974522	780.411877	51.306140	0.237629	0.000000	0.096480	0.000000	0.000000	0.000000	0.000000	0.000000	0.000000	0.000000	14.789189	0.000000	0.000000	0.000000	0.000000	
0.031683	51.336788	780.403758	51.399166	0.236352	0.000000	0.096585	0.000000	0.000000	0.000000	0.000000	0.000000	0.000000	0.000000	14.824216	0.000000	0.000000	0.000000	0.000000	
0.033339	50.694166	780.347526	51.481688	0.235058	0.000000	0.096687	0.000000	0.000000	0.000000	0.000000	0.000000	0.000000	0.000000	14.853345	0.000000	0.000000	0.000000	0.000000	
0.035009	50.047577	780.241151	51.553019	0.233749	0.000000	0.096788	0.000000	0.000000	0.000000	0.000000	0.000000	0.000000	0.000000	14.876367	0.000000	0.000000	0.000000	0.000000	
0.036668	49.397839	780.082675	51.612509	0.232425	0.000000	0.096886	0.000000	0.000000	0.000000	0.000000	0.000000	0.000000	0.000000	14.893102	0.000000	0.000000	0.000000	0.000000	
0.038341	48.745659	779.870226	51.659558	0.231088	0.000000	0.096982	0.000000	0.000000	0.000000	0.000000	0.000000	0.000000	0.000000	14.903410	0.000000	0.000000	0.000000	0.000000	
0.040007	48.091626	779.602047	51.693616	0.229739	0.000000	0.097076	0.000000	0.000000	0.000000	0.000000	0.000000	0.000000	0.000000	14.907187	0.000000	0.000000	0.000000	0.000000	
0.041666	47.436223	779.276509	51.714193	0.228379	0.000000	0.097167	0.000000	0.000000	0.000000	0.000000	0.000000	0.000000	0.000000	14.904370	0.000000	0.000000	0.000000	0.000000	
0.043341	46.779838	778.892132	51.720855	0.227011	0.000000	0.097255	0.000000	0.000000	0.000000	0.000000	0.000000	0.000000	0.000000	14.894933	0.000000	0.000000	0.000000	0.000000	
0.045009	46.122783	778.447589	51.713228	0.225634	0.000000	0.097340	0.000000	0.000000	0.000000	0.000000	0.000000	0.000000	0.000000	14.878889	0.000000	0.000000	0.000000	0.000000	
0.046669	45.465312	777.941723	51.690996	0.224251	0.000000	0.097423	0.000000	0.000000	0.000000	0.000000	0.000000	0.000000	0.000000	14.856284	0.000000	0.000000	0.000000	0.000000	
0.048339	44.807644	777.373547	51.653898	0.222862	0.000000	0.097502	0.000000	0.000000	0.000000	0.000000	0.000000	0.000000	0.000000	14.827193	0.000000	0.000000	0.000000	0.000000	
0.050008	44.149977	776.742248	51.601729	0.221470	0.000000	0.097578	0.000000	0.000000	0.000000	0.000000	0.000000	0.000000	0.000000	14.791722	0.000000	0.000000	0.000000	0.000000	
0.051669	43.492505	776.047193	51.534338	0.220075	0.000000	0.097650	0.000000	0.000000	0.000000	0.000000	0.000000	0.000000	0.000000	14.749998	0.000000	0.000000	0.000000	0.000000	
0.053333	42.835430	775.287922	51.451625	0.218678	0.000000	0.097720	0.000000	0.000000	0.000000	0.000000	0.000000	0.000000	0.000000	14.702169	0.000000	0.000000	0.000000	0.000000	
0.055002	42.178971	774.464151	51.353543	0.217281	0.000000	0.097786	0.000000	0.000000	0.000000	0.000000	0.000000	0.000000	0.000000	14.648405	0.000000	0.000000	0.000000	0.000000	
0.056671	41.523369	773.575771	51.240094	0.215886	0.000000	0.097849	0.000000	0.000000	0.000000	0.000000	0.000000	0.000000	0.000000	14.588888	0.000000	0.000000	0.000000	0.000000	
0.058336	40.868886	772.622846	51.111332	0.214493	0.000000	0.097908	0.000000	0.000000	0.000000	0.000000	0.000000	0.000000	0.000000	14.523818	0.000000	0.000000	0.000000	0.000000	
0.060006	40.215810	771.605607	50.967360	0.213103	0.000000	0.097964	0.000000	0.000000	0.000000	0.000000	0.000000	0.000000	0.000000	14.453406	0.000000	0.000000	0.000000	0.000000	
0.061671	39.564442	770.524457	50.808335	0.211719	0.000000	0.098016	0.000000	0.000000	0.000000	0.000000	0.000000	0.000000	0.000000	14.377876	0.000000	0.000000	0.000000	0.000000	
0.063338	38.915102	769.379964	50.634463	0.210340	0.000000	0.098065	0.000000	0.000000	0.000000	0.000000	0.000000	0.000000	0.000000	14.297467	0.000000	0.000000	0.000000	0.000000	
0.065006	38.268116	768.172863	50.446004	0.208969	0.000000	0.098110	0.000000	0.000000	0.000000	0.000000	0.000000	0.000000	0.000000	14.212424	0.000000	0.000000	0.000000	0.000000	
0.066671	37.623814	766.904052	50.243271	0.207605	0.000000	0.098152	0.000000	0.000000	0.000000	0.000000	0.000000	0.000000	0.000000	14.123006	0.000000	0.000000	0.000000	0.000000	
0.068337	36.982520	765.574591	50.026628	0.206251	0.000000	0.098190	0.000000	0.000000	0.000000	0.000000	0.000000	0.000000	0.000000	14.029485	0.000000	0.000000	0.000000	0.000000	
0.070007	36.344554	764.185704	49.796494	0.204907	0.000000	0.098225	0.000000	0.000000	0.000000	0.000000	0.000000	0.000000	0.000000	13.932138	0.000000	0.000000	0.000000	0.000000	
0.071666	35.710220	762.738770	49.553338	0.203575	0.000000	0.098257	0.000000	0.000000	0.000000	0.000000	0.000000	0.000000	0.000000	13.831255	0.000000	0.000000	0.000000	0.000000	
0.073341	35.079809	761.235327	49.297682	0.202254	0.000000	0.098285	0.000000	0.000000	0.000000	0.000000	0.000000	0.000000	0.000000	13.727135	0.000000	0.000000	0.000000	0.000000	
0.075008	34.453593	759.677065	49.030095	0.200946	0.000000	0.098310	0.000000	0.000000	0.000000	0.000000	0.000000	0.000000	0.000000	13.620083	0.000000	0.000000	0.000000	0.000000	
0.076667	33.831825	758.065825	48.751197	0.199652	0.000000	0.098332	0.000000	0.000000	0.000000	0.000000	0.000000	0.000000	0.000000	13.510413	0.000000	0.000000	0.000000	0.000000	
0.078341	33.214739	756.403593	48.461650	0.198372	0.000000	0.098351	0.000000	0.000000	0.000000	0.000000	0.000000	0.000000	0.000000	13.398444	0.000000	0.000000	0.000000	0.000000	
0.080004	32.602548	754.692493	48.162160	0.197107	0.000000	0.098367	0.000000	0.000000	0.000000	0.000000	0.000000	0.000000	0.000000	13.284498	0.000000	0.000000	0.000000	0.000000	
0.081671	31.995448	752.934787	47.853471	0.195858	0.000000	0.098379	0.000000	0.000000	0.000000	0.000000	0.000000	0.000000	0.000000	13.168904	0.000000	0.000000	0.000000	0.000000	
0.083333	31.393618	751.132863	47.536364	0.194626	0.000000	0.098390	0.000000	0.000000	0.000000	0.000000	0.000000	0.000000	0.000000	13.051988	0.000000	0.000000	0.000000	0.000000	
0.085000	30.797217	749.289230	47.211650	0.193410	0.000000	0.098397	0.000000	0.000000	0.000000	0.000000	0.000000	0.000000	0.000000	12.934080	0.000000	0.000000	0.000000	0.000000	
0.086666	30.206394	747.406511	46.880169	0.192211	0.000000	0.098402	0.000000	0.000000	0.000000	0.000000	0.000000	0.000000	0.000000	12.815505	0.000000	0.000000	0.000000	0.000000	
0.088340	29.621281	745.487435	46.542784	0.191030	0.000000	0.098405	0.000000	0.000000	0.000000	0.000000	0.000000	0.000000	0.000000	12.696588	0.000000	0.000000	0.000000	0.000000	
0.090008	29.041998	743.534826	46.200377	0.189866	0.000000	0.098405	0.000000	0.000000	0.000000	0.000000	0.000000	0.000000	0.000000	12.577648	0.000000	0.000000	0.000000	0.000000	
0.091670	28.468653	741.551597	45.853843	0.188721	0.000000	0.098403	0.000000	0.000000	0.000000	0.000000	0.000000	0.000000	0.000000	12.458999	0.000000	0.000000	0.000000	0.000000	
0.093336	27.901342	739.540740	45.504091	0.187593	0.000000	0.098399	0.000000	0.000000	0.000000	0.000000	0.000000	0.000000	0.000000	12.340948	0.000000	0.000000	0.000000	0.000000	
0.095005	27.340151	737.505315	45.152032	0.186484	0.000000	0.098393	0.000000	0.000000	0.000000	0.000000	0.000000	0.000000	0.000000	12.223794	0.000000	0.000000	0.000000	0.000000	
0.096666	26.785152	735.448444	44.798581	0.185393	0.000000	0.098386	0.000000	0.000000	0.000000	0.000000	0.000000	0.000000	0.000000	12.107825	0.000000	0.000000	0.000000	0.000000	
0.098336	26.236409	733.373299	44.444647	0.184321	0.000000	0.098377	0.000000	0.000000	0.000000	0.000000	0.000000	0.000000	0.000000	11.993321	0.000000	0.000000	0.000000	0.000000	
0.100005	25.693971	731.283093	44.091134	0.183266	0.000000	0.098366	0.000000	0.000000	0.000000	0.000000	0.000000	0.000000	0.000000	11.880550	0.000000	0.000000	0.000000	0.000000	
0.101670	25.157878	729.181069	43.738934	0.182230	0.000000	0.098355	0.000000	0.000000	0.000000	0.000000	0.000000	0.000000	0.000000	11.769766	0.000000	0.000000	0.000000	0.000000	
